<svg class="size-6" fill="currentColor" version="1.1" viewBox="0 0 24 24" xmlns="http://www.w3.org/2000/svg">
<path d="m12 2c-5.52 0-10 4.48-10 10 0 4.42 2.86 8.17 6.84 9.49 0.5 0.0942 0.683-0.215 0.683-0.481 0-0.238-8e-3 -0.867-0.0126-1.7-2.78 0.603-3.37-1.34-3.37-1.34-0.455-1.15-1.11-1.46-1.11-1.46-0.906-0.62 0.07-0.608 0.07-0.608 1 0.07 1.53 1.03 1.53 1.03 0.892 1.53 2.34 1.09 2.91 0.832 0.09-0.647 0.348-1.09 0.633-1.34-2.22-0.25-4.55-1.11-4.55-4.94 0-1.09 0.388-1.98 1.03-2.68-0.112-0.252-0.45-1.27 0.0875-2.65 0 0 0.837-0.268 2.75 1.02 0.8-0.222 1.65-0.332 2.5-0.337 0.85 5e-3 1.7 0.115 2.5 0.337 1.9-1.29 2.74-1.02 2.74-1.02 0.538 1.38 0.2 2.39 0.1 2.65 0.638 0.7 1.02 1.59 1.02 2.68 0 3.84-2.34 4.69-4.56 4.93 0.35 0.3 0.675 0.913 0.675 1.85 0 1.34-0.0125 2.41-0.0125 2.74 0 0.262 0.175 0.575 0.687 0.475 4-1.31 6.86-5.06 6.86-9.47 0-5.52-4.48-10-10-10" />
</svg>
