<svg class="size-6" fill="currentColor" viewBox="0 0 24 24" xmlns="http://www.w3.org/2000/svg"><path d="m12 2c-5.52 0-10 4.48-10 10 0 2.76 1.12 5.26 2.93 7.07l-1.9 1.9c-0.378 0.378-0.11 1.02 0.424 1.02h8.55c5.52 0 10-4.48 10-10s-4.48-10-10-10zm3.66 2.67c0.92 0 1.67 0.746 1.67 1.67 0 0.921-0.746 1.67-1.67 1.67-0.788 0-1.45-0.547-1.62-1.28v0.00166c-0.956 0.135-1.69 0.958-1.69 1.95v0.0058c1.48 0.0558 2.83 0.472 3.91 1.14 0.394-0.302 0.887-0.483 1.42-0.483 1.29 0 2.34 1.04 2.34 2.34 0 0.931-0.546 1.73-1.33 2.11-0.0733 2.71-3.03 4.9-6.66 4.9-3.63 0-6.59-2.18-6.67-4.89-0.795-0.372-1.35-1.18-1.35-2.12 0-1.29 1.05-2.34 2.34-2.34 0.538 0 1.03 0.182 1.43 0.488 1.06-0.658 2.4-1.08 3.87-1.14v-0.0083c0-1.39 1.05-2.53 2.4-2.67 0.157-0.759 0.828-1.33 1.63-1.33zm-6.74 6.98c-0.653 0-1.22 0.65-1.26 1.5-0.0392 0.847 0.533 1.19 1.19 1.19s1.14-0.308 1.18-1.15c0.0392-0.848-0.461-1.53-1.11-1.53zm6.17 0c-0.655 0-1.15 0.687-1.11 1.53 0.0392 0.848 0.528 1.15 1.18 1.15 0.654 0 1.23-0.344 1.19-1.19-0.0383-0.847-0.601-1.5-1.26-1.5zm-3.09 3.34c-0.812 0-1.59 0.04-2.31 0.112-0.122 0.0125-0.201 0.14-0.153 0.254 0.403 0.962 1.35 1.64 2.46 1.64 1.11 0 2.06-0.675 2.46-1.64 0.0475-0.114-0.0308-0.242-0.153-0.254-0.719-0.0725-1.5-0.112-2.31-0.112z"/></svg>